<?xml version="1.0" encoding="utf-8"?>
<!-- Generator: Adobe Illustrator 17.0.0, SVG Export Plug-In . SVG Version: 6.00 Build 0)  -->
<!DOCTYPE svg PUBLIC "-//W3C//DTD SVG 1.1//EN" "http://www.w3.org/Graphics/SVG/1.1/DTD/svg11.dtd">
<svg version="1.1" id="Laag_1" xmlns="http://www.w3.org/2000/svg" xmlns:xlink="http://www.w3.org/1999/xlink" x="0px" y="0px"
	 width="775.333px" height="254px" viewBox="0 0 775.333 254" enable-background="new 0 0 775.333 254" xml:space="preserve">
<g>
	<path fill="#034EA2" d="M303.32,97.386c-12.104-5.336-26.807-5.664-35.051-5.336c-17.038,0.673-22.394,2.142-22.394,2.142v81.778
		c0,0.985,0.618,1.858,1.525,2.164c0.043,0.018,7.698,2.289,21.022,2.645c17.142,0.449,29.654-1.826,38.991-8.071
		c12.528-8.383,18.696-20.305,18.696-37.738C326.11,116.696,318.446,104.048,303.32,97.386z M280.871,161.739
		c-7.256,0.317-11.735-0.185-13.816-0.796l0.014-49.394c2.289-0.361,7.489-0.835,14.411-0.576
		c8.646,0.329,23.165,3.393,23.165,23.116C304.646,154.653,289.825,161.349,280.871,161.739z M371.18,126.321
		c-0.388-0.121-0.734-0.226-1.037-0.331c-6.049-2.03-11.019-5.122-11.255-9.288c-0.122-2.255,0.693-4.265,1.871-5.516
		c1.702-1.798,4.789-2.502,6.727-2.502c9.526,0,18.376,4.519,18.376,4.519l5.242-14.029c0.191-0.565,0.167-1.189-0.081-1.723
		c-0.253-0.544-0.722-0.971-1.292-1.171l-0.109-0.035c-4.591-1.721-12.867-4.259-22.388-4.399
		c-18.485-0.256-29.589,9.136-29.589,24.429c0,18.047,15.215,23.913,20.219,25.943c0.854,0.356,1.797,0.715,2.787,1.092
		c3.316,1.256,6.984,2.818,9.784,4.558c3.057,1.905,3.708,5.417,3.227,7.722c-1.387,6.668-8.704,8.104-14.551,7.227
		c-11.143-1.669-16.994-4.76-16.994-4.76l-4.784,14.144c-0.35,1.036,0.103,2.173,1.061,2.7c0.092,0.046,10.306,5.221,23.402,5.221
		c14.97,0,32.448-7.129,32.448-27.27C394.242,134.323,378.185,128.548,371.18,126.321z M506.826,96.021v80.78
		c0,0.606-0.238,1.177-0.671,1.605c-0.424,0.403-0.996,0.638-1.58,0.638l-18.919,0.022c0,0,0.119-33.288,0-39.919
		c-0.079-4.367,1.279-17.72,1.772-19.972c0.002-0.023,0.002-0.096,0.01-0.157c-0.075-0.35-0.37-0.247-0.455-0.187
		c-0.044,0.035-0.109,0.115-0.109,0.115l-21.459,34.621c-0.125,0.234-0.259,0.434-0.434,0.621c-0.423,0.418-0.994,0.647-1.596,0.647
		l-5.273-0.016H458.1l-5.281,0.016c-0.597,0-1.174-0.229-1.592-0.647c-0.177-0.187-0.31-0.387-0.433-0.621l-21.46-34.621
		c0,0-0.068-0.08-0.104-0.115c-0.094-0.061-0.389-0.163-0.459,0.187c0,0.061,0,0.134,0.006,0.157
		c0.488,2.252,1.852,15.605,1.772,19.972c-0.117,6.631,0,39.919,0,39.919l-18.918-0.022c-0.583,0-1.157-0.234-1.582-0.638
		c-0.43-0.429-0.674-0.999-0.674-1.605v-80.78c0-1.234,1.018-2.234,2.256-2.234h22.851c0.954,0,1.692,0.496,2.183,1.28
		c0,0,16.154,27.8,18.082,31.12c1.238,2.113,3.068,7.023,3.062,7.317v0.01v0.001c0,0.015,0,0.026,0,0.026h0.006
		c0.014,0.147,0.131,0.258,0.279,0.262l0,0c0,0,0.006,0,0.01,0c0.008,0,0.008,0,0.008,0l0,0c0.144-0.004,0.262-0.115,0.278-0.262
		h0.011c0,0,0-0.011,0-0.026v-0.001v-0.01c-0.011-0.293,1.824-5.204,3.055-7.317c1.93-3.319,18.085-31.12,18.085-31.12
		c0.493-0.784,1.229-1.28,2.186-1.28h22.85C505.815,93.787,506.826,94.787,506.826,96.021z"/>
	<g>
		<path fill="#0090D6" d="M252.753,223.754h-6.814v-23.456h6.202c3.494,0,4.713,0.233,6.173,1.146
			c1.761,1.121,2.646,2.646,2.646,4.609c0,2.512-1.426,4.373-4.037,5.125c3.9,0.947,4.986,3.592,4.986,5.93
			C261.908,221.754,258.684,223.754,252.753,223.754z M254.956,203.751c-0.479-0.17-1.086-0.268-2.204-0.268h-3.019v6.399h3.324
			c1.42,0,2.135-0.097,2.881-0.876c0.711-0.743,0.916-1.729,0.916-2.34C256.854,205.313,256.071,204.16,254.956,203.751z
			 M255.397,213.312c-0.577-0.168-1.054-0.203-2.168-0.203h-3.428v7.423h3.527c2.981,0,4.27-1.692,4.27-3.794
			C257.599,215.077,256.683,213.683,255.397,213.312z"/>
		<path fill="#0090D6" d="M278.045,223.754l-2.032-3.626c-1.627-2.883-2.713-4.512-4.002-5.798
			c-0.438-0.442-0.779-0.679-1.523-0.714v10.138h-3.833v-23.456h7.153c5.255,0,7.629,3.045,7.629,6.709
			c0,3.356-2.169,6.44-5.832,6.44c0.848,0.441,2.406,2.715,3.628,4.682l3.459,5.626H278.045z M272.623,203.449h-2.135v7.423h1.999
			c2.035,0,3.119-0.274,3.83-0.988c0.645-0.64,1.051-1.619,1.051-2.846C277.368,204.669,276.079,203.449,272.623,203.449z"/>
		<path fill="#0090D6" d="M286.425,223.754v-23.456h4v23.456H286.425z"/>
		<path fill="#0090D6" d="M305.443,224.062c-3.288,0-5.83-1.054-7.659-3.326c-1.798-2.2-2.614-4.845-2.614-8.543
			c0-4.814,1.46-8.17,4.411-10.373c1.693-1.289,3.521-1.83,5.797-1.83c2.678,0,5.05,0.808,6.982,2.474l-1.966,2.443
			c-1.626-1.255-3.154-1.798-4.951-1.798c-4.338,0-5.933,3.795-5.933,9.285c0,3.29,0.612,5.6,1.731,6.918
			c0.948,1.118,2.647,1.765,4.443,1.765c1.22,0,2.236-0.271,3.118-0.747v-6.098H304.8l-0.542-3.191h8.51v11.053
			C310.633,223.382,308.056,224.062,305.443,224.062z"/>
		<path fill="#0090D6" d="M330.064,223.754v-10.846h-8.004v10.846h-3.864v-23.456h3.864v9.422h8.004v-9.422h3.932v23.456H330.064z"
			/>
		<path fill="#0090D6" d="M353.288,203.548h-5.9v20.206h-3.896v-20.206h-5.938v-3.25h16.246L353.288,203.548z"/>
		<path fill="#0090D6" d="M369.632,224.196c-2.679,0-5.389-0.714-7.695-2.102l1.491-2.983c2.103,1.219,3.967,1.934,6.339,1.934
			c2.883,0,4.615-1.395,4.615-3.732c0-1.73-1.085-2.811-3.494-3.49l-2.51-0.713c-2.134-0.611-3.661-1.492-4.543-2.814
			c-0.644-0.949-0.982-2.069-0.982-3.426c0-4.135,3.253-6.947,7.966-6.947c2.681,0,5.359,0.776,7.428,2.236l-1.765,2.749
			c-2.17-1.288-3.663-1.798-5.526-1.798c-2.306,0-3.831,1.252-3.831,3.188c0,1.455,0.813,2.203,3.118,2.877l2.78,0.818
			c3.39,0.982,5.762,3.152,5.762,6.678C378.786,220.566,375.631,224.196,369.632,224.196z"/>
		<path fill="#0090D6" d="M392.452,224.128c-3.117,0-5.592-1.186-7.424-3.393c-1.762-2.136-2.677-4.982-2.677-8.369
			c0-2.815,0.508-5.154,1.559-7.121c1.763-3.359,4.984-5.394,8.646-5.394c2.272,0,4.441,0.679,5.833,1.831l-1.797,2.578
			c-1.256-0.918-2.544-1.324-4.002-1.324c-1.999,0-3.662,1.02-4.678,2.814c-0.814,1.426-1.221,3.392-1.221,6.17
			c0,2.882,0.305,4.511,0.914,5.834c1.018,2.236,2.949,3.321,5.225,3.321c1.656,0,2.879-0.441,4.201-1.493l1.832,2.479
			C397.03,223.447,394.96,224.128,392.452,224.128z"/>
		<path fill="#0090D6" d="M402.592,223.754v-23.456h4.002v23.456H402.592z"/>
		<path fill="#0090D6" d="M412.36,223.754v-23.456h13.018l-0.511,3.186h-8.609v6.399h7.221v3.226h-7.153v7.321h9.389v3.324H412.36z"
			/>
		<path fill="#0090D6" d="M441.416,223.754l-5.257-11.017c-1.25-2.61-2.541-5.561-2.98-6.951l-0.102,0.1
			c0.168,1.967,0.203,4.205,0.238,6.508l0.133,11.36h-3.828v-23.456h4.405l5.694,11.457c1.088,2.168,2.104,4.946,2.408,6.031
			l0.102-0.101c-0.102-1.187-0.34-4.542-0.34-6.68l-0.066-10.708h3.695v23.456H441.416z"/>
		<path fill="#0090D6" d="M460.372,224.128c-3.119,0-5.595-1.186-7.428-3.393c-1.762-2.136-2.676-4.982-2.676-8.369
			c0-2.815,0.508-5.154,1.559-7.121c1.764-3.359,4.984-5.394,8.646-5.394c2.27,0,4.439,0.679,5.83,1.831l-1.794,2.578
			c-1.257-0.918-2.546-1.324-4.003-1.324c-2.001,0-3.663,1.02-4.68,2.814c-0.811,1.426-1.221,3.392-1.221,6.17
			c0,2.882,0.306,4.511,0.917,5.834c1.018,2.236,2.95,3.321,5.221,3.321c1.661,0,2.882-0.441,4.202-1.493l1.832,2.479
			C464.946,223.447,462.88,224.128,460.372,224.128z"/>
		<path fill="#0090D6" d="M470.51,223.754v-23.456h13.021l-0.506,3.186h-8.615v6.399h7.221v3.226h-7.154v7.321h9.392v3.324H470.51z"
			/>
		<path fill="#0090D6" d="M489.771,224.263c-1.49,0-2.679-1.255-2.679-2.778c0-1.493,1.152-2.68,2.608-2.68
			c1.493,0,2.712,1.186,2.712,2.68C492.413,223.008,491.194,224.263,489.771,224.263z"/>
		<path fill="#0090D6" d="M511.948,223.754h-6.818v-23.456h6.207c3.49,0,4.713,0.233,6.168,1.146
			c1.766,1.121,2.646,2.646,2.646,4.609c0,2.512-1.424,4.373-4.035,5.125c3.898,0.947,4.982,3.592,4.982,5.93
			C521.097,221.754,517.879,223.754,511.948,223.754z M514.149,203.751c-0.473-0.17-1.086-0.268-2.201-0.268h-3.019v6.399h3.321
			c1.426,0,2.135-0.097,2.883-0.876c0.707-0.743,0.916-1.729,0.916-2.34C516.049,205.313,515.27,204.16,514.149,203.751z
			 M514.589,213.312c-0.574-0.168-1.049-0.203-2.169-0.203h-3.426v7.423h3.527c2.983,0,4.275-1.692,4.275-3.794
			C516.797,215.077,515.876,213.683,514.589,213.312z"/>
		<path fill="#0090D6" d="M537.24,223.754l-2.035-3.626c-1.625-2.883-2.71-4.512-3.999-5.798c-0.443-0.442-0.781-0.679-1.525-0.714
			v10.138h-3.832v-23.456h7.152c5.258,0,7.628,3.045,7.628,6.709c0,3.356-2.167,6.44-5.831,6.44c0.85,0.441,2.408,2.715,3.63,4.682
			l3.457,5.626H537.24z M531.817,203.449h-2.137v7.423h2c2.033,0,3.117-0.274,3.83-0.988c0.646-0.64,1.049-1.619,1.049-2.846
			C536.559,204.669,535.272,203.449,531.817,203.449z"/>
		<path fill="#0090D6" d="M545.618,223.754v-23.456h4.002v23.456H545.618z"/>
		<path fill="#0090D6" d="M564.639,224.062c-3.289,0-5.834-1.054-7.663-3.326c-1.798-2.2-2.612-4.845-2.612-8.543
			c0-4.814,1.459-8.17,4.409-10.373c1.694-1.289,3.528-1.83,5.796-1.83c2.682,0,5.051,0.808,6.985,2.474l-1.967,2.443
			c-1.628-1.255-3.15-1.798-4.948-1.798c-4.342,0-5.934,3.795-5.934,9.285c0,3.29,0.611,5.6,1.727,6.918
			c0.948,1.118,2.647,1.765,4.444,1.765c1.219,0,2.235-0.271,3.115-0.747v-6.098h-4l-0.54-3.191h8.509v11.053
			C569.828,223.382,567.251,224.062,564.639,224.062z"/>
		<path fill="#0090D6" d="M589.256,223.754v-10.846h-8.002v10.846h-3.864v-23.456h3.864v9.422h8.002v-9.422h3.932v23.456H589.256z"
			/>
		<path fill="#0090D6" d="M612.481,203.548h-5.896v20.206h-3.901v-20.206h-5.932v-3.25h16.237L612.481,203.548z"/>
		<path fill="#0090D6" d="M615.366,223.754v-23.456h13.02l-0.513,3.186h-8.61v6.399h7.225v3.226h-7.154v7.321h9.392v3.324H615.366z"
			/>
		<path fill="#0090D6" d="M644.018,223.754l-2.035-3.626c-1.627-2.883-2.711-4.512-4-5.798c-0.441-0.442-0.781-0.679-1.525-0.714
			v10.138h-3.832v-23.456h7.152c5.256,0,7.631,3.045,7.631,6.709c0,3.356-2.17,6.44-5.831,6.44c0.846,0.441,2.405,2.715,3.626,4.682
			l3.457,5.626H644.018z M638.594,203.449h-2.137v7.423h2c2.033,0,3.12-0.274,3.83-0.988c0.645-0.64,1.053-1.619,1.053-2.846
			C643.34,204.669,642.051,203.449,638.594,203.449z"/>
		<path fill="#0090D6" d="M672.026,223.754h-12.004v-23.456h3.97v20.233h8.678L672.026,223.754z"/>
		<path fill="#0090D6" d="M676.059,223.754v-23.456h4.002v23.456H676.059z"/>
		<path fill="#0090D6" d="M694.303,223.859h-3.629l-7.897-23.561h4.272l4.235,13.282c0.612,1.867,1.021,3.563,1.22,4.714h0.07
			c0.27-1.119,0.609-2.473,1.424-4.914l4.303-13.082h4.072L694.303,223.859z"/>
		<path fill="#0090D6" d="M705.087,223.754v-23.456h4.003v23.456H705.087z"/>
		<path fill="#0090D6" d="M726.651,223.754l-5.254-11.017c-1.256-2.61-2.545-5.561-2.988-6.951l-0.102,0.1
			c0.174,1.967,0.207,4.205,0.24,6.508l0.135,11.36h-3.83v-23.456h4.406l5.697,11.457c1.085,2.168,2.102,4.946,2.406,6.031
			l0.1-0.101c-0.1-1.187-0.338-4.542-0.338-6.68l-0.065-10.708h3.695v23.456H726.651z"/>
		<path fill="#0090D6" d="M745.776,224.062c-3.29,0-5.835-1.054-7.664-3.326c-1.795-2.2-2.609-4.845-2.609-8.543
			c0-4.814,1.459-8.17,4.408-10.373c1.691-1.289,3.527-1.83,5.797-1.83c2.678,0,5.053,0.808,6.982,2.474l-1.962,2.443
			c-1.628-1.255-3.154-1.798-4.951-1.798c-4.338,0-5.934,3.795-5.934,9.285c0,3.29,0.607,5.6,1.729,6.918
			c0.948,1.118,2.644,1.765,4.438,1.765c1.223,0,2.241-0.271,3.121-0.747v-6.098h-4.002l-0.539-3.191h8.508v11.053
			C750.96,223.382,748.385,224.062,745.776,224.062z"/>
		<path fill="#0090D6" d="M760.525,224.263c-1.489,0-2.676-1.255-2.676-2.778c0-1.493,1.151-2.68,2.607-2.68
			c1.498,0,2.717,1.186,2.717,2.68C763.173,223.008,761.954,224.263,760.525,224.263z"/>
	</g>
	<g>
		<linearGradient id="SVGID_1_" gradientUnits="userSpaceOnUse" x1="223.7176" y1="28.0804" x2="140.241" y2="181.1205">
			<stop  offset="0" style="stop-color:#FDB515"/>
			<stop  offset="0.12" style="stop-color:#FAA61A"/>
			<stop  offset="0.8418" style="stop-color:#BD3682"/>
		</linearGradient>
		<path fill="url(#SVGID_1_)" d="M201.608,16.02c-27.947,8.362-41.283,21.386-37.109,57.419c3.43,23.665,1.422,43.751-2.092,57.31
			c-0.751,2.904-1.494,5.237-2.258,7.264c-0.23,0.822-0.539,1.65-0.943,2.471c-2.108,4.354-6.827,13.525-9.008,16.959
			c-1.641,2.602-5.671,6.825-10.717,6.777c-4.894-0.035-15.589-0.426-18.364-0.426c-2.66,0-7.587,0.301-7.587,0.301
			c7.127,7.671,19.601,14.662,36.425,14.828c12.539,0.128,26.705-3.427,40.253-13.151C239.396,130.497,227.184,40.631,201.608,16.02
			z"/>
		<linearGradient id="SVGID_2_" gradientUnits="userSpaceOnUse" x1="102.8639" y1="244.0985" x2="102.8639" y2="99.5251">
			<stop  offset="0" style="stop-color:#8FC95C"/>
			<stop  offset="0.2704" style="stop-color:#73C056"/>
			<stop  offset="1" style="stop-color:#00834A"/>
		</linearGradient>
		<path fill="url(#SVGID_2_)" d="M99.33,102.935c-34.568,10.832-52.472,53.406-37.23,96.082c1.222,3.436,2.651,6.859,4.315,10.275
			c21.314,43.81,63.734,33.828,63.734,33.828s15.349-29.041-12.998-51.587c-19.79-15.745-30.078-31.465-20.546-56.05
			c0.501-1.303,1.103-2.647,1.742-4.003c0.104-0.242,0.211-0.497,0.334-0.754c3.306-7.233,8.272-14.449,11.321-18.881
			c2.066-3.003,4.489-4.47,9.851-4.921c4.983-0.421,16.878-0.152,20.068,0.086c4.618,0.373,6.636,1.122,9.018,4.692
			c0.054,0.091,0.109,0.173,0.168,0.265C142.283,99.274,120.363,96.349,99.33,102.935z"/>
		<linearGradient id="SVGID_3_" gradientUnits="userSpaceOnUse" x1="158.0618" y1="208.1435" x2="84.5357" y2="137.1402">
			<stop  offset="0" style="stop-color:#36BFBE"/>
			<stop  offset="0.2615" style="stop-color:#18BAAB"/>
			<stop  offset="0.8872" style="stop-color:#00A182"/>
		</linearGradient>
		<path fill="url(#SVGID_3_)" d="M122.859,164.247c-3.599-0.479-6.583-0.451-8.446-1.164l-0.015-0.02
			c-1.632-0.613-3.159-1.707-4.464-3.625c-2.964-4.363-8.836-14.445-10.884-18.625c-2.215-4.502-2.013-6.51-0.376-10.087
			c3.312-7.233,8.281-14.449,11.325-18.874c0.073-0.102,0.148-0.21,0.217-0.305c-1.437,1.226-13.234,11.394-21.039,22.138
			c-14.366,19.769-10.408,47.085,5.954,64.033c11.968,12.389,25.958,14.938,36.638,14.642c19.614-0.537,37.611-15.936,37.611-15.936
			C162.951,177.526,144.667,167.096,122.859,164.247z"/>
		<g>
			<g>
				<linearGradient id="SVGID_4_" gradientUnits="userSpaceOnUse" x1="106.3483" y1="111.5564" x2="106.3483" y2="212.3827">
					<stop  offset="0" style="stop-color:#00542B"/>
					<stop  offset="0.9066" style="stop-color:#00976C"/>
				</linearGradient>
				<path fill="url(#SVGID_4_)" d="M131.768,212.361c0.205,0,0.399-0.018,0.596-0.026c-2.268-6.887-6.825-14.13-15.213-20.801
					c-19.79-15.745-30.078-31.465-20.546-56.05c0.498-1.303,1.103-2.638,1.735-3.997c0.108-0.245,0.217-0.503,0.334-0.761
					c3.312-7.233,8.281-14.449,11.325-18.874c0.073-0.102,0.148-0.203,0.212-0.296c-1.431,1.216-13.228,11.385-21.034,22.129
					c-14.366,19.769-10.408,47.085,5.954,64.033C107.098,210.107,121.089,212.656,131.768,212.361z"/>
			</g>
		</g>
		<linearGradient id="SVGID_5_" gradientUnits="userSpaceOnUse" x1="81.1077" y1="7.1162" x2="124.5702" y2="169.3204">
			<stop  offset="0.0051" style="stop-color:#5FCCF5"/>
			<stop  offset="0.5969" style="stop-color:#00C0F3"/>
		</linearGradient>
		<path fill="url(#SVGID_5_)" d="M182.411,71.223c-9.732-27.011-32.381-49.825-61.747-57.693
			C71.579,0.384,29.788,17.919,7.661,48.165c0,0,16.444,26.287,58.683,24.053c27.417-1.463,55.933,1.247,75.918,29.685
			c2.148,3.046,4.135,6.007,6.007,8.878c0.219,0.281,0.439,0.594,0.667,0.92c2.244,3.391,5.457,8.232,10.45,17.558
			c1.683,3.135,1.769,7.205-0.182,11.225c-2.108,4.354-6.827,13.525-9.008,16.959c-1.552,2.458-5.227,6.338-9.874,6.742
			c-0.023,0.004-0.042,0.004-0.064,0.01c16.45-0.892,29.929-11.256,38.729-26.967C189.381,118.667,190.349,93.243,182.411,71.223z"
			/>
		<linearGradient id="SVGID_6_" gradientUnits="userSpaceOnUse" x1="79.1689" y1="46.2189" x2="104.7892" y2="191.5188">
			<stop  offset="0.1582" style="stop-color:#009CE0"/>
			<stop  offset="0.6" style="stop-color:#034EA2"/>
			<stop  offset="1" style="stop-color:#01397E"/>
		</linearGradient>
		<path fill="url(#SVGID_6_)" d="M163.516,82.201c-9.351-17.143-31.1-37.2-68.74-37.2c-52.944,0-81.268,39.762-81.268,78.438
			c0,30.642,16.625,61.073,48.59,75.608c-11.563-46.898,9.146-89.073,57.136-92.057c0.208-0.026,0.407-0.046,0.616-0.066
			c4.983-0.421,16.878-0.152,20.068,0.086c4.618,0.373,6.636,1.122,9.018,4.692c2.244,3.391,5.457,8.24,10.45,17.56
			c1.683,3.133,1.769,7.203-0.182,11.223c-1.837,3.801-5.662,11.247-8.057,15.376c0.514-0.593,11.673-13.672,15.097-22.236
			C174.353,113.369,168.43,91.193,163.516,82.201z"/>
		<linearGradient id="SVGID_7_" gradientUnits="userSpaceOnUse" x1="163.9656" y1="149.0166" x2="163.9656" y2="67.4374">
			<stop  offset="0" style="stop-color:#45317D"/>
			<stop  offset="1" style="stop-color:#AE8970"/>
		</linearGradient>
		<path fill="url(#SVGID_7_)" d="M140.259,164.212c16.45-0.902,29.929-11.273,38.729-26.984
			c10.394-18.56,11.361-43.985,3.423-66.005c-3.636-10.083-9.072-19.584-15.989-27.938c-2.7,7.763-3.384,17.551-1.923,30.158
			c3.43,23.666,1.422,43.756-2.092,57.307c-0.751,2.911-1.494,5.237-2.258,7.274c-0.23,0.82-0.539,1.641-0.943,2.467
			c-2.108,4.359-6.827,13.521-9.008,16.953c-1.552,2.458-5.23,6.354-9.874,6.746L140.259,164.212z"/>
		<linearGradient id="SVGID_8_" gradientUnits="userSpaceOnUse" x1="46.5824" y1="49.3992" x2="173.0795" y2="122.4323">
			<stop  offset="0" style="stop-color:#008CD1"/>
			<stop  offset="0.1207" style="stop-color:#0087CD"/>
			<stop  offset="0.3175" style="stop-color:#007BC2"/>
			<stop  offset="0.566" style="stop-color:#0068B3"/>
			<stop  offset="0.8536" style="stop-color:#004E9F"/>
			<stop  offset="1" style="stop-color:#203D95"/>
		</linearGradient>
		<path fill="url(#SVGID_8_)" d="M166.245,133.624c8.108-20.254,2.186-42.431-2.729-51.423c-9.351-17.143-31.1-37.2-68.74-37.2
			c-25.573,0-45.401,9.279-59.065,23.229c8.168,2.85,18.292,4.633,30.633,3.99c27.417-1.463,55.933,1.247,75.918,29.685
			c2.148,3.046,4.135,6.007,6.007,8.878h0.003c0.106,0.135,0.209,0.276,0.315,0.419c0.113,0.165,0.231,0.338,0.349,0.501
			c2.244,3.391,5.457,8.24,10.45,17.56c1.683,3.133,1.769,7.203-0.182,11.223c-1.837,3.801-5.662,11.247-8.057,15.376
			C151.662,155.267,162.821,142.188,166.245,133.624z"/>
		<linearGradient id="SVGID_9_" gradientUnits="userSpaceOnUse" x1="154.5933" y1="209.9908" x2="126.9437" y2="162.9379">
			<stop  offset="0" style="stop-color:#D379B1"/>
			<stop  offset="1" style="stop-color:#9A258F"/>
		</linearGradient>
		<path fill="url(#SVGID_9_)" d="M197.179,173.172c-6.754-4.502-10.668-14.251-10.326-23.708c0.376-10.246-5.713-8.635-5.713-8.635
			s-12.634,23.137-41.591,23.383c-0.008,0-0.011,0-0.022,0c-5.28-0.043-14.456-0.381-18.311-0.418
			c-18.512,0.189-36.554,3.742-51.184,22.289c0,0,15.468-0.844,45.824,8.507C172.223,211.953,200.093,179.343,197.179,173.172z"/>
		<linearGradient id="SVGID_10_" gradientUnits="userSpaceOnUse" x1="166.3447" y1="181.979" x2="149.0915" y2="152.6183">
			<stop  offset="0" style="stop-color:#AF3F89"/>
			<stop  offset="0.8" style="stop-color:#9A2682"/>
		</linearGradient>
		<path fill="url(#SVGID_10_)" d="M181.14,140.822c0,0-12.517,22.904-41.176,23.373c-0.156,0.018-0.319,0.025-0.484,0.018
			c-1.451,0-3.419-0.048-5.528-0.109c-4.752-0.11-10.047-0.279-12.737-0.309c-1.009,0.01-2.01,0.033-3.014,0.062
			c-1.609,0.064-3.21,0.146-4.057,0.189c-0.207,0.02-0.404,0.039-0.607,0.057c7.128,7.663,19.595,14.654,36.417,14.82
			c12.539,0.128,26.705-3.438,40.253-13.151c0.1-0.073,0.186-0.148,0.287-0.218c-2.545-4.674-3.847-10.446-3.642-16.09
			C187.229,139.218,181.14,140.822,181.14,140.822z"/>
		<path fill="#023D86" d="M99.33,102.935c-34.568,10.832-52.472,53.406-37.23,96.09c-11.559-46.896,9.151-89.051,57.136-92.036
			c0.208-0.026,0.407-0.046,0.616-0.066c4.983-0.421,16.878-0.152,20.068,0.086c4.618,0.373,6.636,1.122,9.018,4.692
			c0.054,0.091,0.109,0.173,0.168,0.265C142.283,99.274,120.363,96.349,99.33,102.935z"/>
		<linearGradient id="SVGID_11_" gradientUnits="userSpaceOnUse" x1="66.1887" y1="181.7282" x2="149.5292" y2="181.7282">
			<stop  offset="0" style="stop-color:#564088"/>
			<stop  offset="1" style="stop-color:#8F53A1"/>
		</linearGradient>
		<path fill="url(#SVGID_11_)" d="M169.379,196.421c-6.431-18.896-24.716-29.325-46.52-32.174c-1.434-0.189-2.765-0.299-3.972-0.416
			c-17.691,0.49-34.835,4.484-48.855,22.252c0,0,15.468-0.844,45.824,8.507C138.24,201.483,156.125,200.497,169.379,196.421z"/>
		<path fill="#003579" d="M165.952,87.634c1.072,17.493-0.757,32.362-3.546,43.115c-0.751,2.911-1.494,5.237-2.258,7.264
			c0,0-0.005,0.023-0.008,0.039c-0.104,0.367-0.226,0.736-0.367,1.102c-0.031,0.087-0.059,0.153-0.089,0.231
			c-0.125,0.323-0.264,0.648-0.416,0.966c-0.021,0.048-0.041,0.097-0.063,0.132c-1.837,3.801-5.65,11.23-8.045,15.365
			c0.606-0.711,11.674-13.703,15.084-22.225C173.017,116.688,169.993,98.431,165.952,87.634z"/>
		<path fill="#5A2E87" d="M122.589,196.474c-1.6-1.663-3.734-3.338-5.754-4.94c-9.695-7.717-16.794-15.403-20.715-24.151
			c-9.376,3.113-18.537,8.733-26.396,18.701c0,0,15.463-0.844,45.818,8.507C117.828,195.292,120.395,195.925,122.589,196.474z"/>
		<g>
			<path fill="#582B6D" d="M139.874,164.212c-0.111,0-0.212,0-0.326,0c-0.008,0-0.011,0-0.022,0
				c-1.588-0.018-3.537-0.055-5.582-0.104c2.117,0.056,4.085,0.104,5.536,0.111C139.613,164.22,139.744,164.212,139.874,164.212z"/>
			<path fill="#582B6D" d="M113.538,164.103c0.203-0.018,0.4-0.036,0.607-0.045c-0.379,0.018-0.616,0.037-0.616,0.037
				L113.538,164.103z"/>
			<path fill="#582B6D" d="M113.538,164.103c0.203-0.018,0.4-0.036,0.607-0.045c-0.379,0.018-0.616,0.037-0.616,0.037
				L113.538,164.103z"/>
			<path fill="#582B6D" d="M118.932,163.839c-0.027-0.008-0.056-0.008-0.079-0.008c-0.219,0.008-0.436,0.016-0.652,0.025
				C118.443,163.847,118.691,163.847,118.932,163.839z"/>
			<path fill="#582B6D" d="M118.932,163.839c-0.027-0.008-0.056-0.008-0.079-0.008c-0.219,0.008-0.436,0.016-0.652,0.025
				C118.443,163.847,118.691,163.847,118.932,163.839z"/>
			<path fill="#70308D" d="M118.932,163.839c-0.241,0.008-0.489,0.008-0.73,0.018c-1.357,0.041-2.71,0.109-4.057,0.201
				c-0.207,0.009-0.404,0.027-0.607,0.045c7.132,7.663,19.595,14.654,36.417,14.82c2.435,0.033,4.938-0.084,7.483-0.368
				c-8.832-7.833-21.027-12.536-34.579-14.308C121.444,164.058,120.126,163.949,118.932,163.839z"/>
		</g>
	</g>
</g>
</svg>
