<?xml version="1.0" encoding="UTF-8" standalone="no"?>
<svg id="Layer_1" xmlns="http://www.w3.org/2000/svg" viewBox="0 0 1440.17 408.4">
  <defs>
    <style>.cls-1{fill:#004b87;}.cls-2{fill:#4da9c5;}</style>
  </defs>
  <title>IDT_Logo16_RGB</title>
  <path class="cls-1" d="M550.09,412.62V349.91h13q14,0,20.39,2.26a27.27,27.27,0,0,1,14.24,11.08q5.13,7.89,5.13,18.8a33,33,0,0,1-4.06,16.59,26.07,26.07,0,0,1-10.56,10.57q-6.49,3.41-18.2,3.41Zm6-5.92h7.24q13,0,18-1.62a20.77,20.77,0,0,0,11.11-8.29,25.53,25.53,0,0,0,4-14.63,26.88,26.88,0,0,0-4.38-15.51,22.09,22.09,0,0,0-12.22-8.82Q574,356,560.52,356h-4.43Z" transform="translate(-4.91 -5.8)" />
  <path class="cls-1" d="M614.25,412.62V349.91h1.36L657.28,398V349.91h6.17v62.71h-1.4l-41.33-47.49v47.49Z" transform="translate(-4.91 -5.8)" />
  <path class="cls-1" d="M700.64,349.91l29.2,62.71h-6.76L713.24,392h-27l-9.75,20.63h-7l29.58-62.71Zm-.79,13.32-10.73,22.7h21.41Z" transform="translate(-4.91 -5.8)" />
  <path class="cls-1" d="M5.17,349.91h6.26v62.71H5.17Z" transform="translate(-4.91 -5.8)" />
  <path class="cls-1" d="M23.62,412.62V349.91H25L66.65,398V349.91h6.17v62.71h-1.4L30.09,365.14v47.49Z" transform="translate(-4.91 -5.8)" />
  <path class="cls-1" d="M85,356v-6.14h34.31V356h-14v56.57H99V356Z" transform="translate(-4.91 -5.8)" />
  <path class="cls-1" d="M130.81,349.91h35.88V356H137.07V375.7h29.37v6.14H137.07v24.64h29.37v6.14H130.81Z" transform="translate(-4.91 -5.8)" />
  <path class="cls-1" d="M239,360.44l-4.85,4.6a37,37,0,0,0-11.47-7.82,30.79,30.79,0,0,0-12.15-2.67,29,29,0,0,0-14,3.62A26.3,26.3,0,0,0,186.22,368a25.4,25.4,0,0,0-3.66,13.11,25.92,25.92,0,0,0,3.79,13.45,26.93,26.93,0,0,0,10.47,10,30.06,30.06,0,0,0,14.64,3.65,25,25,0,0,0,16.34-5.46,21.55,21.55,0,0,0,7.92-14.15h-20v-6.06h27q-.09,14.54-8.62,23.09t-22.84,8.55q-17.37,0-27.5-11.86a31.53,31.53,0,0,1-7.79-21.1,32.4,32.4,0,0,1,4.47-16.59,31.81,31.81,0,0,1,12.26-12,35.68,35.68,0,0,1,17.62-4.33,39.15,39.15,0,0,1,15,2.88A44.76,44.76,0,0,1,239,360.44Z" transform="translate(-4.91 -5.8)" />
  <path class="cls-1" d="M252.1,349.91h12.47q10.43,0,14.13.85a16.11,16.11,0,0,1,9.07,5.49,15.67,15.67,0,0,1,3.49,10.35,16.77,16.77,0,0,1-2.4,9,15,15,0,0,1-6.87,5.87q-4.47,2-12.34,2l22.51,29.12h-7.74l-22.52-29.12h-3.54v29.12H252.1Zm6.26,6.14v21.32l10.79.09q6.27,0,9.27-1.19a9.64,9.64,0,0,0,4.69-3.82,10.61,10.61,0,0,0,1.68-5.86,10.17,10.17,0,0,0-1.7-5.74,9.53,9.53,0,0,0-4.48-3.69q-2.77-1.1-9.21-1.11Z" transform="translate(-4.91 -5.8)" />
  <path class="cls-1" d="M329.34,349.91l29.2,62.71h-6.76L341.93,392H315l-9.75,20.63h-7l29.58-62.71Zm-.79,13.32-10.73,22.7h21.4Z" transform="translate(-4.91 -5.8)" />
  <path class="cls-1" d="M355.55,356v-6.14h34.31V356h-14v56.57h-6.38V356Z" transform="translate(-4.91 -5.8)" />
  <path class="cls-1" d="M402.05,349.91h35.88V356H408.31V375.7h29.37v6.14H408.31v24.64h29.37v6.14H402.05Z" transform="translate(-4.91 -5.8)" />
  <path class="cls-1" d="M450.12,412.62V349.91h13q14,0,20.39,2.26a27.27,27.27,0,0,1,14.24,11.08q5.13,7.89,5.13,18.8a33,33,0,0,1-4.06,16.59,26.07,26.07,0,0,1-10.56,10.57q-6.49,3.41-18.2,3.41Zm6-5.92h7.24q13,0,18-1.62a20.77,20.77,0,0,0,11.11-8.29,25.53,25.53,0,0,0,4-14.63,26.88,26.88,0,0,0-4.38-15.51,22.09,22.09,0,0,0-12.22-8.82Q474,356,460.55,356h-4.43Z" transform="translate(-4.91 -5.8)" />
  <path class="cls-1" d="M762.86,356v-6.14h34.31V356h-14v56.57h-6.39V356Z" transform="translate(-4.91 -5.8)" />
  <path class="cls-1" d="M809.75,349h35.88v6.14H816v19.65h29.37v6.14H816v24.64h29.37v6.14H809.75Z" transform="translate(-4.91 -5.8)" />
  <path class="cls-1" d="M916.95,361.55,912,365.34a27,27,0,0,0-9.81-8.08,28.7,28.7,0,0,0-12.58-2.75,27.78,27.78,0,0,0-13.88,3.6,25.84,25.84,0,0,0-9.89,9.68,26.78,26.78,0,0,0-3.51,13.66,25.68,25.68,0,0,0,7.85,19.14q7.85,7.67,19.81,7.67,13.15,0,22-10.32l4.94,3.75a31.57,31.57,0,0,1-11.68,9.23,36.64,36.64,0,0,1-15.64,3.26q-16.43,0-25.92-11a33.1,33.1,0,0,1-8-22.34,31.08,31.08,0,0,1,9.64-23.17q9.64-9.4,24.15-9.4a35.41,35.41,0,0,1,15.83,3.47A30.76,30.76,0,0,1,916.95,361.55Z" transform="translate(-4.91 -5.8)" />
  <path class="cls-1" d="M926.3,349.91h6.26v26.3h31.88v-26.3h6.26v62.71h-6.26V382.35H932.56v30.27H926.3Z" transform="translate(-4.91 -5.8)" />
  <path class="cls-1" d="M982.89,412.62V349.91h1.36L1025.92,398V349.91h6.17v62.71h-1.4l-41.33-47.49v47.49Z" transform="translate(-4.91 -5.8)" />
  <path class="cls-1" d="M1074,348.33q14.23,0,23.81,9.51a33,33,0,0,1-23.3,56.37,32,32,0,0,1-23.51-9.55,31.43,31.43,0,0,1-9.58-23.11,33.47,33.47,0,0,1,4.37-16.75A32.24,32.24,0,0,1,1074,348.33Zm.28,6.1a25.76,25.76,0,0,0-13.17,3.63,26.08,26.08,0,0,0-9.72,9.77,27.2,27.2,0,0,0-3.5,13.7,26.36,26.36,0,0,0,26.39,26.58,26.76,26.76,0,0,0,13.49-3.54,25.34,25.34,0,0,0,9.68-9.69,27.27,27.27,0,0,0,3.47-13.66,26.61,26.61,0,0,0-3.47-13.5,26,26,0,0,0-9.78-9.66A26.44,26.44,0,0,0,1074.31,354.43Z" transform="translate(-4.91 -5.8)" />
  <path class="cls-1" d="M1118.54,349.91h6.26v56.66h24.09v6.05h-30.35Z" transform="translate(-4.91 -5.8)" />
  <path class="cls-1" d="M1184.26,348.33q14.23,0,23.81,9.51a33,33,0,0,1-23.3,56.37,32,32,0,0,1-23.51-9.55,31.43,31.43,0,0,1-9.58-23.11,33.47,33.47,0,0,1,4.37-16.75,32.24,32.24,0,0,1,28.22-16.46Zm.28,6.1a25.76,25.76,0,0,0-13.17,3.63,26.08,26.08,0,0,0-9.72,9.77,27.2,27.2,0,0,0-3.5,13.7,26.36,26.36,0,0,0,26.39,26.58,26.76,26.76,0,0,0,13.49-3.54,25.34,25.34,0,0,0,9.68-9.69,27.27,27.27,0,0,0,3.47-13.66,26.61,26.61,0,0,0-3.47-13.5,26,26,0,0,0-9.78-9.66A26.44,26.44,0,0,0,1184.54,354.43Z" transform="translate(-4.91 -5.8)" />
  <path class="cls-1" d="M1290,360.44l-4.85,4.6a37,37,0,0,0-11.47-7.82,30.79,30.79,0,0,0-12.15-2.67,29,29,0,0,0-14,3.62,26.32,26.32,0,0,0-10.32,9.83,25.4,25.4,0,0,0-3.66,13.11,25.92,25.92,0,0,0,3.79,13.45,26.92,26.92,0,0,0,10.47,10,30.05,30.05,0,0,0,14.64,3.65,25,25,0,0,0,16.35-5.46,21.55,21.55,0,0,0,7.91-14.15h-20v-6.06h27q-.09,14.54-8.62,23.09t-22.83,8.55q-17.37,0-27.5-11.86a31.53,31.53,0,0,1-7.79-21.1,32.39,32.39,0,0,1,4.47-16.59,31.83,31.83,0,0,1,12.26-12,35.69,35.69,0,0,1,17.62-4.33,39.15,39.15,0,0,1,15,2.88A44.74,44.74,0,0,1,1290,360.44Z" transform="translate(-4.91 -5.8)" />
  <path class="cls-1" d="M1303.1,349.91h6.26v62.71h-6.26Z" transform="translate(-4.91 -5.8)" />
  <path class="cls-1" d="M1321,349.91h35.88V356h-29.62V375.7h29.37v6.14h-29.37v24.64h29.37v6.14H1321Z" transform="translate(-4.91 -5.8)" />
  <path class="cls-1" d="M1361.55,400.94l5.32-3.2q5.62,10.36,13,10.36a12.41,12.41,0,0,0,5.92-1.47,10.38,10.38,0,0,0,4.21-3.94,10.2,10.2,0,0,0,1.45-5.24,10.66,10.66,0,0,0-2.13-6.18q-2.94-4.17-10.73-10.06t-9.75-8.57a15.68,15.68,0,0,1-3.32-9.59,14.57,14.57,0,0,1,2-7.46,14,14,0,0,1,5.51-5.31,15.87,15.87,0,0,1,7.72-1.94,16.46,16.46,0,0,1,8.28,2.19q3.85,2.2,8.15,8.08l-5.11,3.88q-3.53-4.69-6-6.18a10.4,10.4,0,0,0-5.43-1.49,8.58,8.58,0,0,0-6.19,2.3,7.53,7.53,0,0,0-2.41,5.67,9.66,9.66,0,0,0,.85,4,14.57,14.57,0,0,0,3.11,4.18q1.23,1.19,8.09,6.27,8.13,6,11.15,10.7a17.28,17.28,0,0,1,3,9.42,16,16,0,0,1-5.17,11.85,17.35,17.35,0,0,1-12.58,5,18.41,18.41,0,0,1-10.34-3.05Q1365.46,408.11,1361.55,400.94Z" transform="translate(-4.91 -5.8)" />
  <path class="cls-1" d="M850.69,303.42,840.48,303C770.11,299.82,702.21,243,638.68,185,573.11,125.1,505.31,63.16,434.12,57.7c-3.32-.25-6.7-.37-10-.37-62.82,0-122.22,45.54-177.68,92.19l-6.7,5.8-6.33-5.78-10.06-9.22-7.74-7.52,10.09-9.19C288.24,66.53,361.13,5.75,434.43,7.25c75.14,1.58,142,58.46,206.58,113.47l.34.29c63.34,53.92,128.89,109.77,199.4,108.47l9.95-.17Z" transform="translate(-4.91 -5.8)" />
  <path class="cls-2" d="M840.83,7.69c-55.47.46-106,45.4-155,88.86-11.35,10.09-23.09,20.52-34.44,29.95L649.59,128c7.78,6.61,15.6,13.21,23.46,19.69,9.42-8.23,19-17.06,28.37-25.61,44.73-41,91-83.47,140.1-86.4l9.42-.56V7.6Z" transform="translate(-4.91 -5.8)" />
  <path class="cls-1" d="M888.91,7.59h56v296h-56Z" transform="translate(-4.91 -5.8)" />
  <path class="cls-1" d="M977.84,7.59h64q48.56,0,83.32,8.5t58.1,27.24q26.8,21.28,40.22,48.89t13.41,60.64a144.36,144.36,0,0,1-12.09,58.75,137.23,137.23,0,0,1-35.16,48q-23.06,20.5-57,32.26t-77.76,11.74h-77Zm52.8,274.29h15.47a150.56,150.56,0,0,0,50.28-8.26,114.58,114.58,0,0,0,40.87-24.5q17.4-16.25,27.48-40.13t10.06-55.12q0-27.25-9.55-50.14a117.11,117.11,0,0,0-26.54-39.39,118.84,118.84,0,0,0-40.59-25.61q-23.62-9.14-51.48-9.13h-16Z" transform="translate(-4.91 -5.8)" />
  <path class="cls-1" d="M1403.88,7.59V40.83h-74.77V303.62h-56V40.83h-74.77V7.59Z" transform="translate(-4.91 -5.8)" />
  <path class="cls-1" d="M1412.2,24a15.79,15.79,0,0,1,1.3-6.39,16.72,16.72,0,0,1,8.75-8.75,16.29,16.29,0,0,1,12.77,0,16.7,16.7,0,0,1,8.75,8.75,16.28,16.28,0,0,1,0,12.77,16.71,16.71,0,0,1-8.75,8.75,16.29,16.29,0,0,1-12.77,0,16.73,16.73,0,0,1-8.75-8.75A15.78,15.78,0,0,1,1412.2,24Zm2.92,0a13.23,13.23,0,0,0,1.06,5.26,13.46,13.46,0,0,0,7.2,7.2,13.56,13.56,0,0,0,10.52,0,13.47,13.47,0,0,0,7.2-7.2,13.56,13.56,0,0,0,0-10.52,13.47,13.47,0,0,0-7.2-7.2,13.56,13.56,0,0,0-10.52,0,13.46,13.46,0,0,0-7.2,7.2A13.23,13.23,0,0,0,1415.12,24Zm7.2-9.5h7.25q3.4,0,5,1.46a5.37,5.37,0,0,1,1.61,4.2,5,5,0,0,1-1.27,3.71,5.3,5.3,0,0,1-3.19,1.46l4.86,8H1433l-4.68-7.69h-2.52v7.69h-3.45Zm3.45,8.18h2.52q.8,0,1.59-.07a4.7,4.7,0,0,0,1.43-.33,2.43,2.43,0,0,0,1-.79,2.37,2.37,0,0,0,.4-1.46,2.37,2.37,0,0,0-.4-1.46,2.42,2.42,0,0,0-1-.8,4.38,4.38,0,0,0-1.43-.31q-.8,0-1.59,0h-2.52Z" transform="translate(-4.91 -5.8)" />
  <path class="cls-2" d="M608,165.87c-55.52,47.5-115.24,93.87-181.27,93.87h-.62c-67.4-.43-128.06-50.44-186.42-104.43l0,0-6.33-5.78-10.06-9.22-7.74-7.52,0,0C153.76,74.77,89.73,15.52,16.21,7.08L5.08,5.8V82.1l9.48.48c71.26,3.63,136.25,60.15,199.13,114.84C281.32,256.24,345.2,311.79,419,311.79c2.44,0,4.86-.06,7.34-.18C504,307.43,574,241.78,630.3,189l6.3-5.91c-7.85-7.17-15.73-14.36-23.64-21.47Z" transform="translate(-4.91 -5.8)" />
  <path class="cls-1" d="M177.55,166.4c-11.4,9.66-22.87,20-34,30-42.17,38-85.78,77.34-129.76,82.77l-8.91,1.1v27.89l10.93-.83c53.47-4.06,102-46.35,148.86-87.26,13-11.36,25.33-22.09,37.74-32l.22-.18C194.34,180.63,186,173.44,177.55,166.4Z" transform="translate(-4.91 -5.8)" />
</svg>